<?xml version="1.0" standalone="no"?>
<!DOCTYPE svg PUBLIC "-//W3C//DTD SVG 20010904//EN"
 "http://www.w3.org/TR/2001/REC-SVG-20010904/DTD/svg10.dtd">
<svg version="1.0" xmlns="http://www.w3.org/2000/svg"
 width="200.000000pt" height="67.000000pt" viewBox="0 0 200.000000 67.000000"
 preserveAspectRatio="xMidYMid meet">

<g transform="translate(0.000000,67.000000) scale(0.100000,-0.100000)"
fill="#000000" stroke="none">
<path d="M1060 350 l0 -230 30 0 30 0 0 230 0 230 -30 0 -30 0 0 -230z"/>
<path d="M1180 465 c0 -20 5 -25 25 -25 20 0 25 5 25 25 0 20 -5 25 -25 25
-20 0 -25 -5 -25 -25z"/>
<path d="M264 431 c-23 -10 -52 -34 -65 -52 -21 -30 -24 -47 -27 -146 l-4
-113 31 0 31 0 0 106 c0 103 1 106 29 135 22 21 39 29 65 29 33 0 36 2 36 30
0 26 -4 30 -27 30 -16 0 -46 -9 -69 -19z"/>
<path d="M483 439 c-17 -5 -45 -23 -62 -40 -108 -107 -25 -288 126 -276 72 5
111 38 177 151 58 97 81 116 139 116 63 0 114 -63 103 -126 -7 -35 -52 -80
-90 -90 -32 -8 -76 12 -76 35 0 21 57 75 89 86 24 7 26 16 9 33 -19 19 -41 14
-85 -18 -50 -37 -77 -88 -64 -122 24 -64 106 -85 180 -46 57 29 82 64 88 121
10 87 -33 153 -116 178 -88 26 -152 -14 -224 -139 -51 -88 -71 -109 -117 -122
-67 -19 -130 32 -130 105 1 62 45 105 110 105 54 0 50 -28 -10 -82 -45 -40
-51 -50 -40 -63 22 -26 49 -17 106 39 48 46 55 58 52 86 -5 58 -88 93 -165 69z"/>
<path d="M1304 419 c-23 -28 -25 -58 -7 -91 l18 -33 3 38 c2 20 2 52 0 69 -2
25 -5 29 -14 17z"/>
<path d="M1180 260 l0 -140 25 0 25 0 0 140 0 140 -25 0 -25 0 0 -140z"/>
<path d="M1292 161 c-8 -24 -7 -31 5 -35 22 -9 23 -8 23 23 0 41 -16 47 -28
12z"/>
</g>
</svg>
