<?xml version="1.0" standalone="no"?>
<!DOCTYPE svg PUBLIC "-//W3C//DTD SVG 20010904//EN"
 "http://www.w3.org/TR/2001/REC-SVG-20010904/DTD/svg10.dtd">
<svg version="1.0" xmlns="http://www.w3.org/2000/svg"
 width="300.000000pt" height="100.000000pt" viewBox="0 0 300.000000 100.000000"
 preserveAspectRatio="xMidYMid meet">

<g transform="translate(0.000000,100.000000) scale(0.100000,-0.100000)"
fill="#000000" stroke="none">
<path d="M1590 525 l0 -345 45 0 45 0 0 345 0 345 -45 0 -45 0 0 -345z"/>
<path d="M1762 698 c3 -43 3 -43 46 -46 l42 -3 0 45 0 46 -46 0 -45 0 3 -42z"/>
<path d="M394 646 c-28 -13 -65 -41 -82 -62 -49 -58 -62 -117 -62 -271 l0
-133 45 0 45 0 0 140 c0 120 3 146 20 179 24 48 72 79 134 87 46 7 46 7 46 45
l0 39 -47 0 c-29 0 -68 -10 -99 -24z"/>
<path d="M730 658 c-35 -10 -93 -48 -118 -78 -72 -85 -67 -244 11 -329 60 -65
197 -91 282 -52 57 25 132 113 190 220 74 138 134 180 227 159 72 -16 128 -85
128 -159 0 -47 -41 -110 -90 -138 -68 -38 -160 -18 -160 36 0 23 60 80 115
109 60 32 66 49 24 73 -33 19 -65 10 -120 -33 -104 -83 -128 -163 -68 -230 68
-79 218 -73 304 11 131 127 85 349 -84 409 -83 30 -190 7 -254 -54 -16 -15
-60 -79 -98 -143 -77 -131 -117 -175 -168 -189 -54 -15 -82 -12 -125 13 -142
80 -88 297 74 297 95 0 90 -44 -16 -130 -35 -29 -64 -58 -64 -64 0 -19 34 -46
56 -46 26 0 57 22 122 84 92 88 104 136 49 191 -50 50 -134 67 -217 43z"/>
<path d="M1957 632 c-25 -27 -38 -72 -32 -106 6 -31 40 -85 48 -76 8 9 15 200
7 200 -4 0 -14 -8 -23 -18z"/>
<path d="M1760 385 l0 -205 45 0 45 0 0 205 0 205 -45 0 -45 0 0 -205z"/>
<path d="M1940 253 c-6 -15 -13 -34 -15 -40 -4 -13 24 -33 45 -33 15 0 9 92
-7 98 -7 2 -18 -9 -23 -25z"/>
</g>
</svg>
