<?xml version="1.0" standalone="no"?>
<!DOCTYPE svg PUBLIC "-//W3C//DTD SVG 20010904//EN"
 "http://www.w3.org/TR/2001/REC-SVG-20010904/DTD/svg10.dtd">
<svg version="1.0" xmlns="http://www.w3.org/2000/svg"
 width="200.000000pt" height="200.000000pt" viewBox="0 0 200.000000 200.000000"
 preserveAspectRatio="xMidYMid meet">

<g transform="translate(0.000000,200.000000) scale(0.100000,-0.100000)"
fill="#000000" stroke="none">
<path d="M487 1175 c-22 -45 -22 -45 7 -45 16 0 32 10 44 28 35 51 35 52 -1
52 -28 0 -36 -5 -50 -35z"/>
<path d="M290 1083 c-8 -3 -22 -12 -31 -20 -14 -12 -17 -12 -22 2 -4 9 -19 15
-42 15 l-35 0 0 -145 0 -145 40 0 40 0 0 100 c0 109 5 118 73 134 22 5 27 12
27 36 0 30 -13 36 -50 23z"/>
<path d="M440 1077 c-47 -16 -60 -47 -60 -144 0 -72 3 -85 24 -110 23 -26 30
-28 99 -28 86 0 117 18 117 67 0 24 -4 28 -28 28 -19 0 -30 -7 -37 -22 -7 -16
-20 -24 -45 -26 -38 -4 -60 16 -60 55 0 22 3 23 85 23 l85 0 0 56 c0 70 -11
91 -58 104 -47 13 -78 12 -122 -3z m104 -53 c9 -8 16 -24 16 -35 0 -16 -7 -19
-49 -19 -54 0 -63 6 -54 38 8 32 61 42 87 16z"/>
<path d="M726 1059 c-15 -12 -26 -30 -26 -45 0 -36 50 -34 68 3 27 60 7 81
-42 42z"/>
<path d="M710 930 c-31 -31 -27 -93 6 -119 15 -12 37 -21 49 -21 18 0 21 4 17
25 -2 14 -8 28 -13 31 -14 8 -10 54 5 60 8 3 12 13 9 25 -7 25 -47 25 -73 -1z"/>
</g>
</svg>
