<?xml version="1.0" standalone="no"?>
<!DOCTYPE svg PUBLIC "-//W3C//DTD SVG 20010904//EN"
 "http://www.w3.org/TR/2001/REC-SVG-20010904/DTD/svg10.dtd">
<svg version="1.0" xmlns="http://www.w3.org/2000/svg"
 width="500.000000pt" height="500.000000pt" viewBox="0 0 500.000000 500.000000"
 preserveAspectRatio="xMidYMid meet">

<g transform="translate(0.000000,500.000000) scale(0.100000,-0.100000)"
fill="#000000" stroke="none">
<path d="M1267 3029 c-21 -12 -109 -187 -101 -200 7 -13 111 -11 135 2 11 6
47 51 80 101 45 68 57 93 47 100 -19 11 -140 9 -161 -3z"/>
<path d="M745 2716 c-55 -17 -96 -40 -119 -65 -23 -26 -36 -19 -36 19 0 38
-23 50 -95 50 -103 0 -95 31 -95 -378 0 -265 3 -361 12 -370 17 -17 162 -16
177 1 7 9 12 98 13 258 l3 244 52 31 c29 17 81 37 115 44 35 7 69 17 76 23 16
12 16 129 0 145 -15 15 -51 14 -103 -2z"/>
<path d="M1185 2724 c-127 -20 -196 -65 -220 -147 -21 -71 -21 -393 0 -464 31
-103 124 -148 305 -146 82 0 117 5 162 22 89 34 134 104 126 196 l-3 40 -79 0
-79 0 -11 -45 c-14 -59 -39 -72 -133 -68 -96 4 -106 15 -111 112 l-4 73 208 6
c148 5 210 11 216 20 11 17 10 164 -2 228 -22 116 -94 163 -265 173 -44 2 -93
2 -110 0z m158 -155 c31 -14 47 -48 47 -99 l0 -40 -125 0 -125 0 0 40 c0 49
16 85 44 98 28 14 129 15 159 1z"/>
<path d="M1881 2701 c-103 -36 -143 -88 -139 -181 l3 -55 75 -3 c83 -3 100 7
100 59 0 15 7 35 16 43 8 9 13 16 9 16 -4 0 0 7 9 15 11 11 13 25 9 47 -5 23
-3 29 6 24 9 -6 9 -2 -1 13 -7 12 -16 21 -21 21 -4 0 -5 5 -2 10 8 14 -1 12
-64 -9z m77 -86 c-3 -3 -9 2 -12 12 -6 14 -5 15 5 6 7 -7 10 -15 7 -18z"/>
<path d="M1855 2386 c-84 -26 -127 -78 -140 -167 -16 -111 35 -211 122 -237
38 -11 152 -16 125 -5 -6 2 -9 9 -6 15 4 6 0 14 -7 19 -11 7 -10 9 4 9 9 0 17
5 17 11 0 5 -4 7 -10 4 -14 -9 -13 8 2 23 9 9 7 13 -6 18 -15 6 -15 7 1 20 15
12 15 13 2 8 -26 -8 -59 42 -59 88 0 32 7 45 38 75 20 19 32 33 26 30 -7 -4
-10 9 -9 38 1 27 -2 45 -9 45 -6 0 -4 5 4 10 22 14 -46 12 -95 -4z"/>
</g>
</svg>
