<?xml version="1.0" standalone="no"?>
<!DOCTYPE svg PUBLIC "-//W3C//DTD SVG 20010904//EN"
 "http://www.w3.org/TR/2001/REC-SVG-20010904/DTD/svg10.dtd">
<svg version="1.0" xmlns="http://www.w3.org/2000/svg"
 width="1404.000000pt" height="469.000000pt" viewBox="0 0 1404.000000 469.000000"
 preserveAspectRatio="xMidYMid meet">

<g transform="translate(0.000000,469.000000) scale(0.100000,-0.100000)"
fill="#000000" stroke="none">
<path d="M7445 4098 c-3 -7 -4 -744 -3 -1638 l3 -1625 225 0 225 0 0 1635 0
1635 -223 3 c-173 2 -224 0 -227 -10z"/>
<path d="M8252 3482 c-9 -7 -12 -57 -10 -218 l3 -209 220 0 220 0 3 209 c2
161 -1 211 -10 218 -7 4 -103 8 -213 8 -110 0 -206 -4 -213 -8z"/>
<path d="M2158 3144 c-273 -42 -547 -198 -722 -413 -117 -143 -194 -303 -239
-496 -19 -85 -21 -126 -24 -747 l-4 -658 215 0 215 0 3 658 3 657 28 80 c65
186 198 343 362 427 132 68 182 79 383 85 l172 6 0 208 0 209 -152 -1 c-84 -1
-192 -7 -240 -15z"/>
<path d="M5869 3150 c-265 -42 -484 -153 -670 -340 -118 -118 -182 -214 -444
-665 -227 -390 -275 -466 -369 -588 -161 -209 -383 -317 -650 -317 -133 0
-200 15 -312 70 -140 68 -286 228 -358 391 -76 173 -75 419 3 585 103 220 302
382 524 428 211 44 459 -20 482 -124 21 -96 -200 -326 -608 -631 -67 -51 -125
-95 -129 -98 -11 -10 39 -110 79 -159 43 -53 121 -107 186 -128 l49 -16 75 37
c148 73 381 270 611 515 145 156 199 229 233 319 62 165 34 299 -89 432 -93
101 -213 177 -356 225 -399 136 -852 39 -1161 -248 -244 -228 -369 -517 -369
-853 1 -333 120 -615 356 -841 411 -394 1047 -432 1500 -91 87 66 250 235 340
354 79 104 197 296 293 473 43 80 107 199 143 265 145 269 258 403 415 493
109 63 177 84 297 92 237 16 435 -49 589 -195 226 -214 301 -500 206 -786 -75
-225 -313 -442 -550 -504 -184 -47 -454 13 -523 118 -69 103 -26 244 114 377
128 121 396 280 611 361 l61 23 -14 36 c-45 107 -151 211 -252 244 -43 15 -53
15 -107 1 -160 -42 -331 -161 -560 -390 -174 -174 -214 -226 -263 -347 -83
-206 -33 -424 138 -602 90 -93 153 -134 262 -170 169 -57 318 -74 481 -57 275
30 495 129 687 309 240 224 363 510 363 842 -1 140 -11 217 -48 346 -116 404
-466 720 -884 800 -94 18 -307 26 -382 14z"/>
<path d="M9230 3053 c-257 -173 -327 -527 -159 -810 35 -58 158 -191 197 -212
l22 -12 0 369 c0 203 3 444 7 535 3 100 2 167 -3 167 -5 0 -34 -17 -64 -37z"/>
<path d="M8252 2788 c-9 -9 -12 -242 -12 -985 l0 -973 225 0 225 0 0 979 c0
883 -2 979 -16 985 -31 12 -409 7 -422 -6z"/>
<path d="M9120 1345 c-18 -21 -158 -398 -153 -411 7 -20 267 -134 305 -134 4
0 8 105 8 234 l0 234 -52 33 c-29 17 -62 38 -74 46 -18 12 -23 11 -34 -2z"/>
</g>
</svg>
