<?xml version="1.0" standalone="no"?>
<!DOCTYPE svg PUBLIC "-//W3C//DTD SVG 20010904//EN"
 "http://www.w3.org/TR/2001/REC-SVG-20010904/DTD/svg10.dtd">
<svg version="1.0" xmlns="http://www.w3.org/2000/svg"
 width="600.000000pt" height="600.000000pt" viewBox="0 0 600.000000 600.000000"
 preserveAspectRatio="xMidYMid meet">

<g transform="translate(0.000000,600.000000) scale(0.100000,-0.100000)"
fill="#000000" stroke="none">
<path d="M4179 5400 c-110 -23 -244 -62 -345 -101 -126 -48 -284 -121 -284
-130 0 -5 8 -17 18 -27 11 -11 34 -40 52 -66 22 -33 37 -46 49 -43 9 3 77 28
152 56 205 76 316 103 431 105 110 1 143 -13 163 -74 l11 -33 25 89 c13 49 24
113 24 142 0 46 -4 57 -28 78 -25 21 -38 24 -105 23 -42 0 -116 -9 -163 -19z"/>
<path d="M2764 4995 c-388 -57 -783 -234 -1063 -476 -45 -38 -120 -92 -166
-120 -137 -81 -281 -195 -413 -327 -67 -68 -127 -132 -132 -142 -6 -11 54 14
163 69 437 220 944 385 1447 471 225 39 374 16 475 -72 43 -38 51 -41 113 -44
37 -2 78 -6 92 -10 35 -10 40 -11 84 -18 44 -7 205 -60 233 -76 10 -5 31 -14
46 -20 l28 -10 -57 -111 c-78 -152 -207 -343 -361 -532 -183 -226 -180 -222
-188 -274 -3 -27 -24 -136 -46 -243 -22 -107 -38 -199 -36 -204 2 -6 70 55
151 134 l148 145 -29 23 c-15 13 -48 41 -72 62 l-45 38 25 30 c13 17 97 113
187 215 193 218 350 412 515 632 127 170 357 511 357 529 0 12 -122 84 -245
144 -170 83 -411 158 -603 187 -122 19 -480 18 -608 0z"/>
<path d="M4918 4040 c-58 -119 -149 -268 -281 -464 -77 -114 -102 -159 -102
-184 -1 -18 3 -36 7 -38 10 -6 11 -238 1 -248 -4 -3 -8 -26 -9 -49 -4 -69 -15
-140 -25 -160 -6 -10 -12 -37 -15 -60 -3 -23 -10 -44 -16 -48 -5 -3 -9 -9 -9
-13 1 -3 1 -7 0 -8 0 -2 -3 -16 -5 -33 -3 -16 -11 -33 -17 -37 -7 -4 -8 -8 -3
-8 5 0 3 -7 -4 -15 -7 -8 -10 -15 -6 -15 3 0 -3 -17 -14 -37 -11 -21 -20 -43
-20 -50 0 -7 -4 -13 -10 -13 -5 0 -10 -6 -10 -14 0 -7 -10 -26 -22 -42 -13
-16 -21 -30 -19 -32 6 -6 -72 -122 -81 -122 -4 0 -8 -6 -8 -14 0 -8 -7 -16
-15 -20 -8 -3 -14 -10 -13 -15 2 -5 -9 -20 -24 -34 -15 -14 -25 -26 -24 -28 2
-2 -18 -25 -44 -52 l-48 -47 -84 88 c-46 49 -121 136 -168 194 l-84 106 -111
-101 c-60 -56 -112 -102 -114 -104 -4 -2 110 -178 176 -271 l45 -64 41 69 c73
122 56 127 204 -59 71 -90 173 -210 225 -268 116 -128 331 -340 344 -340 10 0
138 143 197 220 115 152 249 395 311 568 74 207 116 465 116 715 0 318 -63
612 -190 883 -36 77 -37 84 -28 139 5 32 7 94 6 139 l-3 81 -47 -95z"/>
<path d="M1935 3781 c-201 -36 -532 -135 -792 -236 -290 -114 -582 -279 -643
-365 -48 -68 -61 -159 -35 -248 15 -51 28 -64 38 -39 3 6 5 -5 4 -25 -1 -86
151 -239 413 -415 l75 -50 28 -98 c15 -54 45 -143 68 -199 l40 -102 -60 -179
c-106 -319 -160 -580 -168 -815 -8 -216 21 -327 97 -378 30 -21 44 -23 95 -19
180 15 346 155 492 415 79 141 81 146 46 138 -16 -4 -70 -14 -121 -23 l-93
-16 -45 -68 c-49 -75 -133 -156 -170 -165 -34 -9 -50 0 -71 38 -14 27 -17 56
-16 158 1 143 25 294 79 505 55 213 44 204 119 94 78 -115 206 -264 225 -264
22 0 52 69 129 300 117 350 197 675 277 1127 21 114 40 208 43 208 3 0 37 -30
76 -66 60 -56 71 -63 77 -47 10 26 45 257 59 392 16 158 8 333 -19 393 -11 25
-29 51 -40 57 -28 15 -89 13 -207 -8z m-969 -548 c-17 -59 -28 -249 -24 -410
4 -133 2 -181 -6 -176 -39 23 -130 100 -179 151 -60 63 -97 129 -97 172 0 73
75 157 210 236 82 48 104 54 96 27z"/>
<path d="M5152 2041 l-61 -60 53 -113 c116 -247 185 -486 193 -673 8 -181 -12
-215 -123 -202 -24 2 -44 3 -44 1 0 -2 36 -15 81 -29 86 -27 157 -35 202 -22
15 4 27 3 27 -2 0 -5 -35 -46 -77 -92 l-78 -82 39 6 c144 23 217 246 171 522
-39 238 -155 540 -291 758 l-30 48 -62 -60z"/>
<path d="M2804 1792 l-111 -67 -28 -85 c-91 -284 -231 -594 -338 -754 -37 -55
-67 -101 -67 -103 0 -4 18 0 151 32 l106 25 84 -20 c219 -52 561 -63 790 -25
l95 16 115 -45 c120 -47 317 -109 384 -122 36 -6 27 3 -105 101 -171 128 -466
417 -600 588 -108 137 -240 329 -305 440 -27 47 -52 86 -55 86 -3 -1 -55 -31
-116 -67z"/>
</g>
</svg>
